<svg xmlns="http://www.w3.org/2000/svg" viewBox="0 0 390 844" width="390" height="844" font-family="Segoe UI, Roboto, Helvetica, Arial, sans-serif">
  <defs>
    <clipPath id="screen"><rect width="390" height="844" rx="28"/></clipPath>
    <linearGradient id="hero" x1="0" y1="0" x2="1" y2="1">
      <stop offset="0" stop-color="#2B0F5E"/><stop offset=".55" stop-color="#6A1B9A"/><stop offset="1" stop-color="#E94CFF"/>
    </linearGradient>
    <linearGradient id="heroFade" x1="0" y1="0" x2="0" y2="1">
      <stop offset=".3" stop-color="#000" stop-opacity="0"/><stop offset=".65" stop-color="#000" stop-opacity=".4"/><stop offset="1" stop-color="#000" stop-opacity=".8"/>
    </linearGradient>
    <linearGradient id="p2" x1="0" y1="0" x2="1" y2="1"><stop offset="0" stop-color="#00C6FB"/><stop offset="1" stop-color="#005BEA"/></linearGradient>
    <linearGradient id="p3" x1="0" y1="0" x2="1" y2="1"><stop offset="0" stop-color="#F5AF19"/><stop offset="1" stop-color="#F12711"/></linearGradient>
    <linearGradient id="p4" x1="0" y1="0" x2="1" y2="1"><stop offset="0" stop-color="#11998E"/><stop offset="1" stop-color="#38EF7D"/></linearGradient>
    <linearGradient id="p5" x1="0" y1="0" x2="1" y2="1"><stop offset="0" stop-color="#FC466B"/><stop offset="1" stop-color="#3F5EFB"/></linearGradient>
    <linearGradient id="duelCard" x1="0" y1="0" x2="1" y2="0"><stop offset="0" stop-color="#4A1066"/><stop offset="1" stop-color="#003A45"/></linearGradient>
  </defs>

  <g clip-path="url(#screen)">
    <rect width="390" height="844" fill="#0A0418"/>

    <!-- status bar -->
    <text x="24" y="30" fill="#fff" font-size="13" font-weight="600">9:41</text>
    <g stroke="#fff" stroke-width="1.5" fill="none" opacity=".9">
      <path d="M318 27a7 7 0 0 1 10 0M320.5 29.8a3.5 3.5 0 0 1 5 0"/><circle cx="323" cy="32.4" r="1" fill="#fff" stroke="none"/>
    </g>
    <rect x="338" y="22" width="22" height="11" rx="3" stroke="#fff" fill="none" opacity=".9"/>
    <rect x="340" y="24" width="14" height="7" rx="1.5" fill="#fff"/>
    <rect x="361" y="25.5" width="2" height="4" rx="1" fill="#fff" opacity=".9"/>

    <!-- app bar -->
    <text x="16" y="78" fill="#fff" font-size="22" font-weight="800">Nerd Vault</text>
    <g stroke="#fff" stroke-width="1.8" fill="none" stroke-linecap="round" stroke-linejoin="round">
      <path d="M316 76c0-2 0-6 5-7v-1.2a1.6 1.6 0 0 1 3.2 0V69c5 1 5 5 5 7l1.5 2.5h-16.2z"/>
      <path d="M320.8 78.8a1.9 1.9 0 0 0 3.8 0"/>
      <path d="M352 66h2.4l2 9.5h9.6l2-6.8h-12.4"/>
      <circle cx="357.5" cy="79.5" r="1.4" fill="#fff" stroke="none"/><circle cx="364.5" cy="79.5" r="1.4" fill="#fff" stroke="none"/>
    </g>
    <circle cx="325.5" cy="66" r="4" fill="#E94CFF"/>

    <!-- greeting -->
    <text x="16" y="112" fill="#B9B3C7" font-size="13">Buenas tardes,</text>
    <text x="16" y="138" fill="#fff" font-size="22" font-weight="800">Ricardo 👋</text>
    <text x="16" y="161" fill="#B9B3C7" font-size="13">¿Qué vas a descubrir hoy?</text>

    <!-- quick actions -->
    <g>
      <rect x="16" y="176" width="113" height="62" rx="12" fill="#241640"/>
      <path d="M72.5 196.5a5 5 0 0 0-7-.2l-1 1-1-1a5 5 0 0 0-7 7.2l8 7.8 8-7.8a5 5 0 0 0 0-7z" fill="none" stroke="#E94CFF" stroke-width="1.8"/>
      <text x="72.5" y="226" fill="#fff" font-size="11" font-weight="600" text-anchor="middle">Favoritos</text>

      <rect x="139" y="176" width="113" height="62" rx="12" fill="#241640"/>
      <g stroke="#E94CFF" stroke-width="1.8" fill="none" stroke-linejoin="round">
        <path d="M188.5 192h14v20l-2.3-1.6-2.4 1.6-2.3-1.6-2.3 1.6-2.4-1.6-2.3 1.6z"/>
        <path d="M191.5 198h8M191.5 203h8"/>
      </g>
      <text x="195.5" y="226" fill="#fff" font-size="11" font-weight="600" text-anchor="middle">Mis órdenes</text>

      <rect x="262" y="176" width="113" height="62" rx="12" fill="#241640"/>
      <g stroke="#E94CFF" stroke-width="1.8" fill="none" stroke-linejoin="round">
        <path d="M311 194l5-2v18l-5 2-6-2-5 2v-18l5-2zM311 194v18M305 192v18"/>
      </g>
      <text x="318.5" y="226" fill="#fff" font-size="11" font-weight="600" text-anchor="middle">Cercanos</text>
    </g>

    <!-- featured carousel -->
    <g>
      <rect x="16" y="256" width="358" height="192" rx="16" fill="url(#hero)"/>
      <!-- abstract skyline -->
      <g fill="#1A0B2E" opacity=".5">
        <rect x="40" y="330" width="30" height="118"/><rect x="80" y="300" width="24" height="148"/>
        <rect x="112" y="345" width="36" height="103"/><rect x="158" y="315" width="26" height="133"/>
        <rect x="194" y="352" width="30" height="96"/><rect x="234" y="298" width="22" height="150"/>
        <rect x="264" y="335" width="34" height="113"/><rect x="308" y="312" width="26" height="136"/>
      </g>
      <circle cx="300" cy="296" r="26" fill="#FFC857" opacity=".85"/>
      <rect x="16" y="256" width="358" height="192" rx="16" fill="url(#heroFade)"/>
      <rect x="28" y="268" width="76" height="22" rx="11" fill="#000" opacity=".55"/>
      <text x="66" y="283" fill="#fff" font-size="11" text-anchor="middle">🎬 Película</text>
      <text x="28" y="381" fill="#fff" font-size="20" font-weight="800">Ciudad Neón</text>
      <text x="28" y="401" fill="#E6E0F0" font-size="12">2026&#160;&#160;&#160;★ 8.4</text>
      <rect x="28" y="410" width="122" height="28" rx="10" fill="#E94CFF"/>
      <path d="M40 418l8 6-8 6z" fill="#fff"/>
      <text x="56" y="428" fill="#fff" font-size="12" font-weight="600">Ver detalle</text>
    </g>
    <!-- dots -->
    <g fill="#6E6584">
      <rect x="168" y="458" width="18" height="6" rx="3" fill="#E94CFF"/>
      <circle cx="198" cy="461" r="3"/><circle cx="212" cy="461" r="3"/><circle cx="226" cy="461" r="3"/>
    </g>

    <!-- trending movies -->
    <g stroke="#E94CFF" stroke-width="1.8" fill="none" stroke-linejoin="round">
      <rect x="16" y="479" width="18" height="14" rx="2"/>
      <path d="M16 483h18M20 479l3 4M26 479l3 4"/>
    </g>
    <text x="42" y="492" fill="#fff" font-size="17" font-weight="700">Películas en tendencia</text>
    <text x="346" y="491" fill="#E94CFF" font-size="12" font-weight="600" text-anchor="end">Ver todo</text>

    <g>
      <rect x="16" y="506" width="100" height="150" rx="10" fill="url(#p2)"/>
      <circle cx="46" cy="546" r="16" fill="#fff" opacity=".25"/><path d="M16 616l34-36 24 22 18-14 24 26v42H16z" fill="#00263f" opacity=".55"/>
      <text x="16" y="676" fill="#fff" font-size="12" font-weight="500">Nébula 9</text>
      <text x="16" y="693" fill="#B9B3C7" font-size="11">★ 8.7</text>

      <rect x="128" y="506" width="100" height="150" rx="10" fill="url(#p3)"/>
      <circle cx="200" cy="534" r="18" fill="#fff" opacity=".3"/><path d="M128 636l30-52 22 30 16-18 32 40z" fill="#5c0f00" opacity=".5"/>
      <text x="128" y="676" fill="#fff" font-size="12" font-weight="500">Carretera 66</text>
      <text x="128" y="693" fill="#B9B3C7" font-size="11">★ 7.9</text>

      <rect x="240" y="506" width="100" height="150" rx="10" fill="url(#p5)"/>
      <path d="M290 528l10 22 24 3-17 17 4 24-21-11-21 11 4-24-17-17 24-3z" fill="#fff" opacity=".3"/>
      <text x="240" y="676" fill="#fff" font-size="12" font-weight="500">Sombra Digital</text>
      <text x="240" y="693" fill="#B9B3C7" font-size="11">★ 8.2</text>

      <rect x="352" y="506" width="38" height="150" rx="10" fill="url(#p4)"/>
    </g>

    <!-- duel card -->
    <rect x="16" y="706" width="358" height="56" rx="14" fill="url(#duelCard)"/>
    <text x="32" y="742" font-size="24">🆚</text>
    <text x="72" y="729" fill="#fff" font-size="14" font-weight="800">Duelo de gustos</text>
    <text x="72" y="748" fill="#CBC4DB" font-size="11">Elige tus favoritos y descubre tu perfil</text>
    <path d="M356 726l8 8-8 8" stroke="#fff" stroke-width="2" fill="none" stroke-linecap="round" stroke-linejoin="round"/>

    <!-- bottom nav -->
    <rect x="0" y="764" width="390" height="80" fill="#1A0B2E"/>
    <rect x="11" y="774" width="56" height="30" rx="15" fill="#E94CFF" opacity=".22"/>
    <g stroke-width="1.8" stroke-linejoin="round" stroke-linecap="round">
      <path d="M39 780l-10 8.5h3v9h5v-6h4v6h5v-9h3z" fill="#E94CFF" stroke="#E94CFF"/>
      <g fill="none" stroke="#B9B3C7">
        <circle cx="115" cy="787" r="6.5"/><path d="M120 792l6 6"/>
        <rect x="186" y="781" width="18" height="16" rx="2"/><path d="M186 786h18M190 779v4M200 779v4"/>
        <path d="M272 780l5-2v18l-5 2-6-2-5 2v-18l5-2zM272 780v18M266 778v18"/>
        <circle cx="351" cy="784" r="4.5"/><path d="M343 798c1-5 4-7 8-7s7 2 8 7"/>
      </g>
    </g>
    <text x="39" y="822" fill="#E94CFF" font-size="10" font-weight="600" text-anchor="middle">Inicio</text>
    <text x="117" y="822" fill="#B9B3C7" font-size="10" text-anchor="middle">Buscar</text>
    <text x="195" y="822" fill="#B9B3C7" font-size="10" text-anchor="middle">Estrenos</text>
    <text x="273" y="822" fill="#B9B3C7" font-size="10" text-anchor="middle">Cercanos</text>
    <text x="351" y="822" fill="#B9B3C7" font-size="10" text-anchor="middle">Perfil</text>
  </g>
</svg>
